<svg width="21" height="20" viewBox="0 0 21 20" fill="none" xmlns="http://www.w3.org/2000/svg">
<path d="M17.855 3.125H4.10498C3.77346 3.125 3.45552 3.2567 3.2211 3.49112C2.98668 3.72554 2.85498 4.04348 2.85498 4.375V15.625C2.85498 15.9565 2.98668 16.2745 3.2211 16.5089C3.45552 16.7433 3.77346 16.875 4.10498 16.875H17.855C18.1865 16.875 18.5044 16.7433 18.7389 16.5089C18.9733 16.2745 19.105 15.9565 19.105 15.625V4.375C19.105 4.04348 18.9733 3.72554 18.7389 3.49112C18.5044 3.2567 18.1865 3.125 17.855 3.125ZM17.855 15.625H4.10498V4.375H17.855V15.625ZM14.73 6.875C14.73 7.86956 14.3349 8.82339 13.6316 9.52665C12.9284 10.2299 11.9745 10.625 10.98 10.625C9.98542 10.625 9.03159 10.2299 8.32833 9.52665C7.62507 8.82339 7.22998 7.86956 7.22998 6.875C7.22998 6.70924 7.29583 6.55027 7.41304 6.43306C7.53025 6.31585 7.68922 6.25 7.85498 6.25C8.02074 6.25 8.17971 6.31585 8.29692 6.43306C8.41413 6.55027 8.47998 6.70924 8.47998 6.875C8.47998 7.53804 8.74337 8.17393 9.21221 8.64277C9.68105 9.11161 10.3169 9.375 10.98 9.375C11.643 9.375 12.2789 9.11161 12.7477 8.64277C13.2166 8.17393 13.48 7.53804 13.48 6.875C13.48 6.70924 13.5458 6.55027 13.663 6.43306C13.7802 6.31585 13.9392 6.25 14.105 6.25C14.2707 6.25 14.4297 6.31585 14.5469 6.43306C14.6641 6.55027 14.73 6.70924 14.73 6.875Z" fill="#09090B"/>
</svg>
