<svg width="64" height="30" viewBox="0 0 64 30" fill="none" xmlns="http://www.w3.org/2000/svg">
<g clip-path="url(#clip0_1_295)">
<mask id="mask0_1_295" style="mask-type:luminance" maskUnits="userSpaceOnUse" x="-1" y="0" width="65" height="30">
<path d="M-0.00805664 0.450012H63.9679V29.53H-0.00805664V0.450012Z" fill="white"/>
</mask>
<g mask="url(#mask0_1_295)">
<path d="M11.7428 19.6428H8.63399L2.72973 3.49643H5.83838L9.04358 12.9191L10.2487 17.5703L11.4777 12.9191L14.6829 3.49643H17.647L11.7428 19.6428ZM23.1688 19.8837C19.6744 19.8837 17.385 17.4497 17.385 13.7867C17.385 10.0995 19.6744 7.66548 22.976 7.66548C26.4945 7.66548 28.4465 10.0032 28.4465 13.2565C28.4465 13.6903 28.3982 14.1964 28.3501 14.4373H19.9636C20.1082 16.534 21.3372 17.6667 23.1929 17.6667C25.2413 17.6667 26.157 16.6063 26.5909 15.6183L28.2537 17.3533C27.3619 18.7029 25.7714 19.8837 23.1688 19.8837ZM22.976 9.83441C21.3132 9.83441 20.2046 10.7984 19.9877 12.7023H26.0125C25.8197 10.8467 24.7593 9.83441 22.976 9.83441ZM33.5592 19.6428H30.8601V3.49643H33.5592V19.6428ZM38.8964 19.8837C36.9685 19.8837 35.8117 18.7993 35.8117 17.1124C35.8117 15.4496 36.9685 14.4373 38.8724 13.6903L42.8005 12.0275C42.7041 10.8467 42.174 10.0514 40.5593 10.0514C38.9928 10.0514 37.7637 10.9671 37.0891 12.1961L35.4744 10.2681C36.3901 9.01509 38.2217 7.66548 40.8244 7.66548C43.7404 7.66548 45.379 9.32842 45.379 12.2203V16.6304C45.379 17.1605 45.5718 17.3293 46.0057 17.3293H46.7528V19.6428H45.09C43.8368 19.6428 42.8486 19.0644 42.8486 17.3775V16.5099C42.4872 18.0523 41.3545 19.8837 38.8964 19.8837ZM38.4145 16.7027C38.4145 17.3775 38.8724 17.7872 39.8604 17.7872C41.6437 17.7872 42.8486 16.7268 42.8486 15.1363V13.8831L39.8363 15.2327C38.8241 15.6905 38.4145 16.1003 38.4145 16.7027ZM51.3226 19.8837C49.3946 19.8837 48.2379 18.7993 48.2379 17.1124C48.2379 15.4496 49.3946 14.4373 51.2984 13.6903L55.2265 12.0275C55.1301 10.8467 54.6 10.0514 52.9854 10.0514C51.419 10.0514 50.1899 10.9671 49.5151 12.1961L47.9004 10.2681C48.8163 9.01509 50.6478 7.66548 53.2504 7.66548C56.1664 7.66548 57.8052 9.32842 57.8052 12.2203V16.6304C57.8052 17.1605 57.998 17.3293 58.4317 17.3293H59.1788V19.6428H57.516C56.2628 19.6428 55.2748 19.0644 55.2748 17.3775V16.5099C54.9134 18.0523 53.7807 19.8837 51.3226 19.8837ZM50.8406 16.7027C50.8406 17.3775 51.2984 17.7872 52.2866 17.7872C54.0699 17.7872 55.2748 16.7268 55.2748 15.1363V13.8831L52.2624 15.2327C51.2503 15.6905 50.8406 16.1003 50.8406 16.7027ZM2.60919 25.2097C2.44303 25.2097 2.28367 25.2757 2.16617 25.3932C2.04868 25.5107 1.98267 25.6701 1.98267 25.8363C1.98267 26.0024 2.04868 26.1618 2.16617 26.2793C2.28367 26.3968 2.44303 26.4628 2.60919 26.4628V25.2097ZM2.60919 26.4628C3.74113 26.4628 4.32099 25.7714 4.72549 25.309C5.14337 24.8316 5.3859 24.5831 5.89872 24.5831V23.33C4.76679 23.33 4.18693 24.0214 3.78243 24.4838C3.36455 24.9613 3.12202 25.2097 2.60919 25.2097V26.4628ZM5.89872 24.5831C6.41155 24.5831 6.65408 24.8316 7.07196 25.309C7.47646 25.7714 8.05631 26.4628 9.18825 26.4628V25.2097C8.67543 25.2097 8.4329 24.9613 8.01502 24.4838C7.61052 24.0214 7.03066 23.33 5.89872 23.33V24.5831ZM9.18825 26.4628C10.3202 26.4628 10.9 25.7714 11.3046 25.309C11.7224 24.8316 11.965 24.5831 12.4778 24.5831V23.33C11.3458 23.33 10.766 24.0214 10.3615 24.4838C9.94361 24.9613 9.70108 25.2097 9.18825 25.2097V26.4628ZM12.4778 24.5831C12.9906 24.5831 13.2331 24.8316 13.651 25.309C14.0555 25.7714 14.6354 26.4628 15.7673 26.4628V25.2097C15.2545 25.2097 15.012 24.9613 14.5941 24.4838C14.1894 24.0214 13.6097 23.33 12.4778 23.33V24.5831Z" fill="#09090B"/>
<path d="M15.7673 26.4628C16.8993 26.4628 17.4791 25.7714 17.8836 25.309C18.3015 24.8315 18.544 24.5831 19.0569 24.5831V23.33C17.9249 23.33 17.3451 24.0214 16.9406 24.4838C16.5227 24.9612 16.2802 25.2097 15.7673 25.2097V26.4628ZM19.0569 24.5831C19.5697 24.5831 19.8122 24.8315 20.2301 25.309C20.6346 25.7714 21.2145 26.4628 22.3464 26.4628V25.2097C21.8336 25.2097 21.591 24.9612 21.1732 24.4838C20.7687 24.0214 20.1888 23.33 19.0569 23.33V24.5831ZM22.3464 26.4628C23.4783 26.4628 24.0582 25.7714 24.4627 25.309C24.8806 24.8315 25.1231 24.5831 25.6359 24.5831V23.33C24.504 23.33 23.9241 24.0214 23.5196 24.4838C23.1017 24.9612 22.8592 25.2097 22.3464 25.2097V26.4628ZM25.6359 24.5831C26.1487 24.5831 26.3913 24.8315 26.8092 25.309C27.2137 25.7714 27.7935 26.4628 28.9255 26.4628V25.2097C28.4126 25.2097 28.1701 24.9612 27.7522 24.4838C27.3477 24.0214 26.7679 23.33 25.6359 23.33V24.5831ZM28.9255 26.4628C30.0574 26.4628 30.6372 25.7714 31.0417 25.309C31.4596 24.8315 31.7022 24.5831 32.215 24.5831V23.33C31.083 23.33 30.5032 24.0214 30.0987 24.4838C29.6808 24.9612 29.4383 25.2097 28.9255 25.2097V26.4628ZM32.215 24.5831C32.7278 24.5831 32.9703 24.8315 33.3882 25.309C33.7927 25.7714 34.3726 26.4628 35.5045 26.4628V25.2097C34.9917 25.2097 34.749 24.9612 34.3313 24.4838C33.9268 24.0214 33.3469 23.33 32.215 23.33V24.5831ZM35.5045 26.4628C36.6365 26.4628 37.2162 25.7714 37.6208 25.309C38.0385 24.8315 38.2812 24.5831 38.794 24.5831V23.33C37.6621 23.33 37.0822 24.0214 36.6777 24.4838C36.2599 24.9612 36.0173 25.2097 35.5045 25.2097V26.4628ZM38.794 24.5831C39.3069 24.5831 39.5494 24.8315 39.9673 25.309C40.3718 25.7714 40.9516 26.4628 42.0836 26.4628V25.2097C41.5707 25.2097 41.3281 24.9612 40.9103 24.4838C40.5057 24.0214 39.926 23.33 38.794 23.33V24.5831ZM42.0836 26.4628C43.2155 26.4628 43.7952 25.7714 44.1999 25.309C44.6176 24.8315 44.8603 24.5831 45.3731 24.5831V23.33C44.2412 23.33 43.6613 24.0214 43.2568 24.4838C42.8389 24.9612 42.5964 25.2097 42.0836 25.2097V26.4628ZM45.3731 24.5831C45.8859 24.5831 46.1285 24.8315 46.5463 25.309C46.9508 25.7714 47.5307 26.4628 48.6626 26.4628V25.2097C48.1498 25.2097 47.9071 24.9612 47.4894 24.4838C47.0847 24.0214 46.505 23.33 45.3731 23.33V24.5831Z" fill="#09090B"/>
<path d="M48.6626 26.4628C49.7945 26.4628 50.3742 25.7714 50.7789 25.309C51.1966 24.8315 51.4393 24.5831 51.9521 24.5831V23.33C50.8202 23.33 50.2403 24.0214 49.8358 24.4838C49.418 24.9612 49.1754 25.2097 48.6626 25.2097V26.4628ZM51.9521 24.5831C52.465 24.5831 52.7075 24.8315 53.1254 25.309C53.5299 25.7714 54.1097 26.4628 55.2417 26.4628V25.2097C54.7288 25.2097 54.4862 24.9612 54.0684 24.4838C53.6638 24.0214 53.0841 23.33 51.9521 23.33V24.5831Z" fill="#09090B"/>
<path d="M55.2417 26.4628C56.3736 26.4628 56.9533 25.7714 57.358 25.309C57.7757 24.8315 58.0184 24.5831 58.5312 24.5831V23.33C57.3993 23.33 56.8194 24.0214 56.4149 24.4838C55.9971 24.9612 55.7545 25.2097 55.2417 25.2097V26.4628ZM58.5312 24.5831C58.6974 24.5831 58.8568 24.5171 58.9743 24.3996C59.0917 24.2821 59.1578 24.1227 59.1578 23.9565C59.1578 23.7904 59.0917 23.631 58.9743 23.5135C58.8568 23.396 58.6974 23.33 58.5312 23.33V24.5831Z" fill="#09090B"/>
</g>
</g>
<defs>
<clipPath id="clip0_1_295">
<rect width="63.976" height="29.08" fill="white" transform="translate(-0.00805664 0.450012)"/>
</clipPath>
</defs>
</svg>
