<svg width="18" height="18" viewBox="0 0 18 18" fill="none" xmlns="http://www.w3.org/2000/svg">
<path d="M16.9221 16.0578L13.0104 12.1469C14.1442 10.7857 14.7095 9.03983 14.5888 7.27244C14.4682 5.50506 13.6708 3.85223 12.3625 2.65779C11.0543 1.46334 9.33589 0.819256 7.56484 0.859506C5.7938 0.899756 4.10645 1.62125 2.85381 2.87389C1.60117 4.12653 0.879675 5.81388 0.839425 7.58492C0.799175 9.35597 1.44326 11.0744 2.6377 12.3826C3.83215 13.6909 5.48498 14.4883 7.25236 14.6089C9.01975 14.7296 10.7656 14.1642 12.1268 13.0305L16.0377 16.9422C16.0958 17.0003 16.1647 17.0463 16.2406 17.0777C16.3165 17.1092 16.3978 17.1253 16.4799 17.1253C16.562 17.1253 16.6434 17.1092 16.7192 17.0777C16.7951 17.0463 16.864 17.0003 16.9221 16.9422C16.9802 16.8841 17.0262 16.8152 17.0577 16.7393C17.0891 16.6634 17.1053 16.5821 17.1053 16.5C17.1053 16.4179 17.0891 16.3366 17.0577 16.2607C17.0262 16.1848 16.9802 16.1159 16.9221 16.0578ZM2.10491 7.75C2.10491 6.63748 2.43482 5.54994 3.0529 4.62491C3.67098 3.69989 4.54949 2.97892 5.57732 2.55317C6.60515 2.12743 7.73615 2.01604 8.8273 2.23308C9.91844 2.45012 10.9207 2.98585 11.7074 3.77252C12.4941 4.55919 13.0298 5.56147 13.2468 6.65261C13.4639 7.74376 13.3525 8.87475 12.9267 9.90259C12.501 10.9304 11.78 11.8089 10.855 12.427C9.92997 13.0451 8.84243 13.375 7.72991 13.375C6.23858 13.3733 4.8088 12.7802 3.75427 11.7256C2.69973 10.6711 2.10657 9.24133 2.10491 7.75Z" fill="#09090B"/>
</svg>
